<svg xmlns="http://www.w3.org/2000/svg" version="1.1" viewBox="-5.0 -10.0 110.0 135.0">
 <path d="m93.625 46.875c-0.48438-7.0625-2.6953-13.898-6.4375-19.906-1.1328-1.8359-2.4062-3.582-3.8125-5.2188-6.6602-7.8984-15.906-13.18-26.094-14.906h-0.03125c-1.375-0.21875-2.7188-0.375-4.125-0.46875-0.089844-0.027344-0.1875-0.035156-0.28125-0.03125-0.9375-0.0625-1.875-0.09375-2.8438-0.09375-0.875 0-1.75 0.03125-2.5938 0.09375-0.17578-0.003906-0.35547 0.003906-0.53125 0.03125-1.2148 0.070312-2.4258 0.20703-3.625 0.40625h-0.03125c-10.383 1.6094-19.832 6.9258-26.594 14.969-1.4062 1.6367-2.6797 3.3828-3.8125 5.2188-3.7422 6.0078-5.9531 12.844-6.4375 19.906-0.09375 1.0312-0.125 2.0625-0.125 3.125s0.03125 2.0938 0.125 3.125c0.48438 7.0625 2.6953 13.898 6.4375 19.906 1.1328 1.8359 2.4062 3.582 3.8125 5.2188 6.6602 7.8984 15.906 13.18 26.094 14.906h0.03125c1.375 0.21875 2.7188 0.375 4.125 0.46875 0.089844 0.027344 0.1875 0.035156 0.28125 0.03125 0.9375 0.0625 1.875 0.09375 2.8438 0.09375 0.875 0 1.75-0.03125 2.5938-0.09375 0.17578 0.003906 0.35547-0.003906 0.53125-0.03125 1.2148-0.070312 2.4258-0.20703 3.625-0.40625h0.03125c10.383-1.6094 19.832-6.9258 26.594-14.969 1.4062-1.6367 2.6797-3.3828 3.8125-5.2188 3.7422-6.0078 5.9531-12.844 6.4375-19.906 0.09375-1.0312 0.125-2.0625 0.125-3.125s-0.03125-2.0938-0.125-3.125zm-6.25 0h-12.531c-0.46484-5.0938-1.4727-10.121-3-15 3.168-0.72266 6.2969-1.6094 9.375-2.6562 3.5273 5.2617 5.6484 11.34 6.1562 17.656zm-21.406 20.094c-4.25-0.71094-8.5391-1.1367-12.844-1.2812v-12.562h15.531c-0.25391 4.7148-1.1602 9.375-2.6875 13.844zm-31.688-0.0625c-1.4609-4.4766-2.4258-9.0977-2.875-13.781h15.469v12.562c-4.2227 0.12109-8.4297 0.52734-12.594 1.2188zm-0.25-33.875c4.2461 0.72656 8.5391 1.1562 12.844 1.2812v12.562h-15.531c0.25391-4.7148 1.1602-9.375 2.6875-13.844zm34.562 13.844h-15.469v-12.562c4.2227-0.13281 8.4297-0.55078 12.594-1.25 1.457 4.4844 2.4219 9.1172 2.875 13.812zm8.4062-22.844c-2.5 0.78125-4.9375 1.4062-7.3125 1.9062-1.5664-3.7578-3.4922-7.3594-5.75-10.75 4.9375 1.9805 9.3906 4.9961 13.062 8.8438zm-22.781-11.281c3.8047 4.2617 6.9062 9.1055 9.1875 14.344-3.4023 0.54297-6.8359 0.86719-10.281 0.96875v-16.531c0.375 0.40625 0.75 0.78125 1.0938 1.2188zm-7.3438-0.78125v16.094c-3.5039-0.10938-7-0.42578-10.469-0.9375 2.5312-5.2656 5.8281-10.133 9.7812-14.438 0.25-0.25 0.46875-0.5 0.6875-0.71875zm-10.594 3.125c-2.4102 3.3945-4.4844 7.0156-6.1875 10.812-2.4688-0.53125-4.8438-1.1875-7.0938-1.875 3.7266-3.9062 8.2578-6.957 13.281-8.9375zm-17.469 14.125c2.8438 0.96875 5.8438 1.8438 9.0312 2.5938-1.5664 4.8789-2.4922 9.9453-2.75 15.062h-12.469c0.50391-6.3203 2.6367-12.402 6.1875-17.656zm-6.1875 23.906h12.531c0.46484 5.0938 1.4727 10.121 3 15-3.1602 0.71875-6.2773 1.6055-9.3438 2.6562-3.5508-5.2539-5.6836-11.336-6.1875-17.656zm10.375 22.844c2.3125-0.71875 4.75-1.375 7.3125-1.9062 1.5664 3.7578 3.4922 7.3594 5.75 10.75-4.9375-1.9805-9.3906-4.9961-13.062-8.8438zm22.781 11.281c-3.8047-4.2734-6.9062-9.125-9.1875-14.375 3.4062-0.51172 6.8398-0.82422 10.281-0.9375v16.531c-0.375-0.40625-0.75-0.78125-1.0938-1.2188zm7.3438 0.78125v-16.094c3.4961 0.11719 6.9805 0.44141 10.438 0.96875-2.5312 5.2539-5.8164 10.105-9.75 14.406-0.25 0.25-0.46875 0.5-0.6875 0.71875zm10.594-3.125c2.4141-3.3867 4.4766-7.0078 6.1562-10.812 2.3125 0.5 4.6875 1.125 7.125 1.875-3.7266 3.9062-8.2578 6.957-13.281 8.9375zm17.5-14.125c-2.9727-1.0195-5.9961-1.875-9.0625-2.5625 1.5703-4.8906 2.4961-9.9648 2.75-15.094h12.469c-0.50781 6.3164-2.6289 12.395-6.1562 17.656z"/>
</svg>